<svg width="16" height="16" viewBox="0 0 16 16" fill="none" xmlns="http://www.w3.org/2000/svg">
<path fill-rule="evenodd" clip-rule="evenodd" d="M12.108 1.65061C12.3162 1.56439 12.5392 1.52002 12.7645 1.52002C12.9898 1.52002 13.2129 1.56439 13.421 1.65061C13.6292 1.73682 13.8183 1.86319 13.9776 2.02249C14.1369 2.1818 14.2633 2.37092 14.3495 2.57906C14.4357 2.7872 14.4801 3.01028 14.4801 3.23557C14.4801 3.46086 14.4357 3.68394 14.3495 3.89208C14.2633 4.10022 14.1369 4.28934 13.9776 4.44865L10.1596 8.26665C9.8952 8.53105 9.55919 8.71066 9.19306 8.7839C9.19304 8.78391 9.19308 8.7839 9.19306 8.7839L7.42773 9.13724C7.27037 9.16873 7.10767 9.1195 6.99417 9.00604C6.88067 8.89259 6.83139 8.72991 6.86282 8.57254L7.21549 6.8072C7.28897 6.44105 7.46924 6.10442 7.73345 5.84049L11.5514 2.02249C11.7107 1.86319 11.8999 1.73682 12.108 1.65061ZM12.7645 2.48002C12.6653 2.48002 12.5671 2.49956 12.4754 2.53753C12.3837 2.5755 12.3004 2.63116 12.2303 2.70132L11.4941 3.43753L12.5628 4.50579L13.2988 3.76983C13.3689 3.69967 13.4246 3.61638 13.4626 3.52471C13.5005 3.43304 13.5201 3.33479 13.5201 3.23557C13.5201 3.13635 13.5005 3.0381 13.4626 2.94643C13.4246 2.85477 13.3689 2.77147 13.2988 2.70132C13.2286 2.63116 13.1453 2.5755 13.0537 2.53753C12.962 2.49956 12.8637 2.48002 12.7645 2.48002ZM11.884 5.18461L10.8152 4.11635L8.41227 6.51932C8.28212 6.64928 8.1931 6.81508 8.15686 6.9954C8.15684 6.99549 8.15688 6.99531 8.15686 6.9954L7.94526 8.05461L9.00465 7.84257C9.18517 7.80647 9.35053 7.71808 9.48078 7.58783L11.884 5.18461Z" fill="#2B871D"/>
<path fill-rule="evenodd" clip-rule="evenodd" d="M4.00083 3.81303C3.77452 3.81303 3.55747 3.90293 3.39744 4.06296C3.2374 4.22299 3.1475 4.44004 3.1475 4.66636V11.9997C3.1475 12.226 3.2374 12.4431 3.39744 12.6031C3.55747 12.7631 3.77452 12.853 4.00083 12.853H11.3342C11.5605 12.853 11.7775 12.7631 11.9376 12.6031C12.0976 12.4431 12.1875 12.226 12.1875 11.9997V9.99969C12.1875 9.7346 12.4024 9.51969 12.6675 9.51969C12.9326 9.51969 13.1475 9.7346 13.1475 9.99969V11.9997C13.1475 12.4806 12.9565 12.9418 12.6164 13.2819C12.2763 13.622 11.8151 13.813 11.3342 13.813H4.00083C3.51991 13.813 3.05868 13.622 2.71861 13.2819C2.37855 12.9418 2.1875 12.4806 2.1875 11.9997V4.66636C2.1875 4.18543 2.37855 3.72421 2.71861 3.38414C3.05868 3.04407 3.51991 2.85303 4.00083 2.85303H6.00083C6.26593 2.85303 6.48083 3.06793 6.48083 3.33303C6.48083 3.59812 6.26593 3.81303 6.00083 3.81303H4.00083Z" fill="#2B871D"/>
</svg>
