<svg width="24" height="24" viewBox="0 0 24 24" fill="none" xmlns="http://www.w3.org/2000/svg">
<path d="M3.62252 15.0004C5.00726 16.3871 6.85129 17.2196 8.80722 17.3409C10.7632 17.4623 12.696 16.8643 14.2415 15.6594L19.5595 20.9774C19.7481 21.1596 20.0007 21.2604 20.2629 21.2581C20.5251 21.2558 20.7759 21.1507 20.9613 20.9652C21.1467 20.7798 21.2519 20.529 21.2542 20.2668C21.2565 20.0046 21.1557 19.752 20.9735 19.5634L15.6555 14.2454C16.9138 12.6306 17.5087 10.5966 17.3189 8.55819C17.1291 6.51981 16.1688 4.63062 14.634 3.27589C13.0992 1.92115 11.1054 1.20293 9.05918 1.2677C7.01301 1.33247 5.06861 2.17534 3.62252 3.62442C2.87532 4.37124 2.28258 5.25797 1.87818 6.23394C1.47377 7.2099 1.26562 8.25599 1.26562 9.31242C1.26563 10.3689 1.47377 11.4149 1.87818 12.3909C2.28258 13.3669 2.87532 14.2536 3.62252 15.0004ZM5.03652 5.04042C6.02509 4.05187 7.32584 3.43666 8.71715 3.29962C10.1085 3.16257 11.5042 3.51217 12.6667 4.28885C13.8291 5.06552 14.6863 6.22122 15.0922 7.55904C15.4981 8.89686 15.4276 10.334 14.8927 11.6257C14.3578 12.9173 13.3915 13.9836 12.1586 14.6427C10.9257 15.3019 9.50245 15.5131 8.13124 15.2405C6.76004 14.9679 5.52576 14.2283 4.63872 13.1478C3.75167 12.0672 3.26673 10.7125 3.26652 9.31442C3.26378 8.52 3.41882 7.73293 3.72267 6.9989C4.02651 6.26487 4.4731 5.59849 5.03652 5.03842V5.04042ZM4.62052 9.31142C4.62052 9.04621 4.72588 8.79185 4.91341 8.60432C5.10095 8.41678 5.3553 8.31142 5.62052 8.31142C5.88574 8.31142 6.14009 8.41678 6.32763 8.60432C6.51516 8.79185 6.62052 9.04621 6.62052 9.31142C6.62131 10.0243 6.90487 10.7078 7.40899 11.212C7.9131 11.7161 8.5966 11.9996 9.30952 12.0004C9.57474 12.0004 9.82909 12.1058 10.0166 12.2933C10.2042 12.4809 10.3095 12.7352 10.3095 13.0004C10.3095 13.2656 10.2042 13.52 10.0166 13.7075C9.82909 13.8951 9.57474 14.0004 9.30952 14.0004C8.06681 13.9975 6.87583 13.5026 5.99711 12.6238C5.11838 11.7451 4.62343 10.5541 4.62052 9.31142Z" fill="#F96E24"/>
</svg>
