<svg width="24" height="24" viewBox="0 0 24 24" fill="none" xmlns="http://www.w3.org/2000/svg">
<path d="M20.25 4.5H16.5004V3.75C16.4997 3.15347 16.2624 2.58156 15.8406 2.15975C15.4188 1.73794 14.8469 1.50067 14.2504 1.5H9.75038C9.15384 1.50067 8.58194 1.73794 8.16012 2.15975C7.73831 2.58156 7.50105 3.15347 7.50038 3.75V4.5H3.75C3.55109 4.5 3.36032 4.57902 3.21967 4.71967C3.07902 4.86032 3 5.05109 3 5.25C3 5.44891 3.07902 5.63968 3.21967 5.78033C3.36032 5.92098 3.55109 6 3.75 6H4.5V19.5C4.50045 19.8977 4.65863 20.279 4.93983 20.5602C5.22104 20.8414 5.60231 20.9996 6 21H18C18.3977 20.9996 18.779 20.8414 19.0602 20.5602C19.3414 20.279 19.4996 19.8977 19.5 19.5V6H20.25C20.4489 6 20.6397 5.92098 20.7803 5.78033C20.921 5.63968 21 5.44891 21 5.25C21 5.05109 20.921 4.86032 20.7803 4.71967C20.6397 4.57902 20.4489 4.5 20.25 4.5ZM9.00038 3.75C9.00062 3.55116 9.07972 3.36054 9.22032 3.21994C9.36092 3.07935 9.55154 3.00025 9.75038 3H14.2504C14.4492 3.00025 14.6398 3.07935 14.7804 3.21994C14.921 3.36054 15.0001 3.55116 15.0004 3.75V4.5H9.00038V3.75ZM18 19.5H6V6H18V19.5ZM10.5004 9.75V15.75C10.5004 15.9489 10.4214 16.1397 10.2807 16.2803C10.1401 16.421 9.94929 16.5 9.75038 16.5C9.55146 16.5 9.3607 16.421 9.22005 16.2803C9.07939 16.1397 9.00038 15.9489 9.00038 15.75V9.75C9.00038 9.55109 9.07939 9.36032 9.22005 9.21967C9.3607 9.07902 9.55146 9 9.75038 9C9.94929 9 10.1401 9.07902 10.2807 9.21967C10.4214 9.36032 10.5004 9.55109 10.5004 9.75V9.75ZM15.0004 9.75V15.75C15.0004 15.9489 14.9214 16.1397 14.7807 16.2803C14.6401 16.421 14.4493 16.5 14.2504 16.5C14.0515 16.5 13.8607 16.421 13.72 16.2803C13.5794 16.1397 13.5004 15.9489 13.5004 15.75V9.75C13.5004 9.55109 13.5794 9.36032 13.72 9.21967C13.8607 9.07902 14.0515 9 14.2504 9C14.4493 9 14.6401 9.07902 14.7807 9.21967C14.9214 9.36032 15.0004 9.55109 15.0004 9.75V9.75Z" fill="#FA3E3E"/>
</svg>
